<svg id="Layer_1" data-name="Layer 1" xmlns="http://www.w3.org/2000/svg" viewBox="0 0 1077.31 197.81"><defs><style>.cls-1{fill:#fff;}</style></defs><title>brewsy</title><path class="cls-1" d="M0,0H31.52V193.61H0ZM91.42,91.68a45.08,45.08,0,0,1,12.87,3.94A45.56,45.56,0,0,1,117,104.55a48.85,48.85,0,0,1,9.85,14.06,43.72,43.72,0,0,1,3.94,19q0,13.14-3.94,22.59A50.19,50.19,0,0,1,117,175.87a47.79,47.79,0,0,1-12.87,9.72A74.33,74.33,0,0,1,90.76,191a58.68,58.68,0,0,1-11.43,2.23q-5,.4-6.56.4H42.29V170.49H70.93q13.92,0,21.8-8.93t7.88-23.91q0-14.18-8.14-23.9T68.56,104H42.29V82.75H54.9q5.77,0,11.82-.26A27.75,27.75,0,0,0,78,79.6a19.72,19.72,0,0,0,8.54-8.93q3.28-6.32,3.28-18.13a39.87,39.87,0,0,0-1.31-9.85,21.3,21.3,0,0,0-5.26-9.33Q79.34,29.16,72,26.53T52.54,23.91H42.29V0h13.4A98.09,98.09,0,0,1,79.6,2.89a60.89,60.89,0,0,1,20.49,9.19A45.38,45.38,0,0,1,114.27,28.5q5.25,10.13,5.26,24a40.32,40.32,0,0,1-2.63,14.84,45.25,45.25,0,0,1-6.57,11.69,36.79,36.79,0,0,1-9.06,8.28A30.87,30.87,0,0,1,91.42,91.68Z" transform="translate(0 3.15)"/><path class="cls-1" d="M174.69,0h31.53V193.61H174.69ZM306,193.61H272.68l-36.52-70.14a11.69,11.69,0,0,0-1.7.13,21,21,0,0,1-2.76.13H217V100.61h17.86a35.51,35.51,0,0,0,11.56-2,28.68,28.68,0,0,0,10.51-6.43q4.72-4.47,7.61-12.48t2.89-19.84A53.56,53.56,0,0,0,266.11,49a31.44,31.44,0,0,0-5.38-11.82,31.87,31.87,0,0,0-11.43-9.46q-7.37-3.8-19.44-3.8H217V0h13.39a78.24,78.24,0,0,1,24.43,3.94,66.25,66.25,0,0,1,21.68,11.82A62,62,0,0,1,292,34.81a52.75,52.75,0,0,1,5.91,25.08q0,21-9.72,35.73a58.21,58.21,0,0,1-26.27,21.8Z" transform="translate(0 3.15)"/><path class="cls-1" d="M349.38,0h32.05V193.61H349.38ZM470.49,0V23.91H392.2V0Zm-8.15,106.39H392.2V84.85h70.14ZM392.2,169.7h78.29v23.91H392.2Z" transform="translate(0 3.15)"/><path class="cls-1" d="M578.46,167.07,615.23,0h12.35V70.14L599,194.66H557.7L508.58,0H544.3ZM722.15,0h35.73L705.6,194.66h-41L638.35,75.13V0H651l34.15,167.07Z" transform="translate(0 3.15)"/><path class="cls-1" d="M803.32,158.14a55.46,55.46,0,0,0,9.33,4.07q5.64,2,11.69,3.68a118.78,118.78,0,0,0,12.08,2.76,66.18,66.18,0,0,0,11.3,1h.79v25H848q-6.3,0-13-.66a104.79,104.79,0,0,1-13.53-2.23,70.37,70.37,0,0,1-13-4.34,41.33,41.33,0,0,1-10.64-6.7ZM799.12,51a52.16,52.16,0,0,1,3.94-20.75A53.52,53.52,0,0,1,813.7,14.05,50.38,50.38,0,0,1,829.46,3a67.72,67.72,0,0,1,19-5.38V25.22a29.15,29.15,0,0,0-13.93,10.11q-5.51,7.23-5.51,14.58,0,10.25,5.51,16.55a52.4,52.4,0,0,0,13.93,11v29.94q-8.67-4.2-17.34-9.06A82.05,82.05,0,0,1,815.41,87a56.69,56.69,0,0,1-11.69-15.23Q799.12,63.05,799.12,51Zm90.63-21a15.35,15.35,0,0,1-3.15-1.84,21.06,21.06,0,0,0-5.26-2.5,49.94,49.94,0,0,0-8.67-2,65.33,65.33,0,0,0-13.39-.26V-3.15A146.42,146.42,0,0,1,882.79-.66q11.94,2.24,19.31,7c-1.06,2.28-2.28,4.78-3.68,7.49l-3.94,7.62q-1.85,3.54-3.15,5.91A23.87,23.87,0,0,1,889.75,30Zm-30.47,52.8Q868,86.7,877,91.16a75.75,75.75,0,0,1,16.42,10.9,52.29,52.29,0,0,1,12.08,15.63q4.72,9.19,4.73,22.85a49.27,49.27,0,0,1-3.55,18.39,54.08,54.08,0,0,1-10,16.16,55.87,55.87,0,0,1-15.89,12.21,63.31,63.31,0,0,1-21.54,6.57V168.65q21.53-5.25,21.54-28.63a20.7,20.7,0,0,0-6-15.24,69.87,69.87,0,0,0-15.5-11.3Z" transform="translate(0 3.15)"/><path class="cls-1" d="M969.08,0l29.16,75.39-14.18,34.42L933.09,0Zm72.24,0h36l-57.53,114.8v78.81h-32V129Z" transform="translate(0 3.15)"/></svg>